# xmcd
#
# Track frame offsets: 
#        150
#        17382
#        32276
#        50366
#        67971
#        84617
#        98291
#        114965
#        131585
#        145465
#        161665
#
# Disc length: 2381 seconds
#
# Revision: 0
# Processed by: cddbd v1.5.2PL0 Copyright (c) Steve Scherf et al.
# Submitted via: ExactAudioCopy v1.3
#
DISCID=7c094b0b
DTITLE=Elles Bailey - Road I Call Home
DYEAR=2019
DGENRE=Blues Rock
TTITLE0=Hell Or High Water
TTITLE1=Wild Wild West
TTITLE2=Deeper
TTITLE3=What's The Matter With You
TTITLE4=Medicine Man
TTITLE5=Road I Call Home
TTITLE6=Foolish Hearts
TTITLE7=Help Somebody
TTITLE8=Little Piece Of Heaven
TTITLE9=Miss Me When I'm Gone
TTITLE10=Light In The Distance
EXTD=
EXTT0=
EXTT1=
EXTT2=
EXTT3=
EXTT4=
EXTT5=
EXTT6=
EXTT7=
EXTT8=
EXTT9=
EXTT10=
PLAYORDER=
